<svg width="26" height="26" viewBox="0 0 26 26" fill="none" xmlns="http://www.w3.org/2000/svg">
<rect width="26" height="26" rx="13" fill="#FFD25F"/>
<path d="M13 18.3332H19M7 18.3332H8.11636C8.44248 18.3332 8.60554 18.3332 8.75899 18.2963C8.89504 18.2637 9.0251 18.2098 9.1444 18.1367C9.27895 18.0542 9.39425 17.9389 9.62486 17.7083L18 9.33316C18.5523 8.78087 18.5523 7.88544 18 7.33316C17.4477 6.78087 16.5523 6.78087 16 7.33316L7.62484 15.7083C7.39424 15.9389 7.27894 16.0542 7.19648 16.1888C7.12338 16.3081 7.0695 16.4381 7.03684 16.5742C7 16.7276 7 16.8907 7 17.2168V18.3332Z" stroke="white" stroke-width="2" stroke-linecap="round" stroke-linejoin="round"/>
</svg>
