<svg width="26" height="26" viewBox="0 0 26 26" fill="none" xmlns="http://www.w3.org/2000/svg">
<rect width="26" height="26" rx="13" fill="#FFAFF7"/>
<g clip-path="url(#clip0_877_20979)">
<path d="M10.3334 14.333C10.3334 14.333 11.3334 15.6663 13 15.6663C14.6667 15.6663 15.6667 14.333 15.6667 14.333M15 10.9997H15.0067M11 10.9997H11.0067M19.6667 12.9997C19.6667 16.6816 16.6819 19.6663 13 19.6663C9.31814 19.6663 6.33337 16.6816 6.33337 12.9997C6.33337 9.31778 9.31814 6.33301 13 6.33301C16.6819 6.33301 19.6667 9.31778 19.6667 12.9997ZM15.3334 10.9997C15.3334 11.1838 15.1841 11.333 15 11.333C14.8159 11.333 14.6667 11.1838 14.6667 10.9997C14.6667 10.8156 14.8159 10.6663 15 10.6663C15.1841 10.6663 15.3334 10.8156 15.3334 10.9997ZM11.3334 10.9997C11.3334 11.1838 11.1841 11.333 11 11.333C10.8159 11.333 10.6667 11.1838 10.6667 10.9997C10.6667 10.8156 10.8159 10.6663 11 10.6663C11.1841 10.6663 11.3334 10.8156 11.3334 10.9997Z" stroke="white" stroke-width="2" stroke-linecap="round" stroke-linejoin="round"/>
</g>
<defs>
<clipPath id="clip0_877_20979">
<rect width="16" height="16" fill="white" transform="translate(5 5)"/>
</clipPath>
</defs>
</svg>
