<svg width="26" height="26" viewBox="0 0 26 26" fill="none" xmlns="http://www.w3.org/2000/svg">
<rect width="26" height="26" rx="13" fill="#A36BFF"/>
<path fill-rule="evenodd" clip-rule="evenodd" d="M17.8 6.6001H8.19998C7.77563 6.6001 7.36866 6.76867 7.0686 7.06873C6.76855 7.36878 6.59998 7.77575 6.59998 8.2001V17.8001C6.59998 18.2244 6.76855 18.6314 7.0686 18.9315C7.36866 19.2315 7.77563 19.4001 8.19998 19.4001H17.8C18.2243 19.4001 18.6313 19.2315 18.9313 18.9315C19.2314 18.6314 19.4 18.2244 19.4 17.8001V8.2001C19.4 7.77575 19.2314 7.36878 18.9313 7.06873C18.6313 6.76867 18.2243 6.6001 17.8 6.6001ZM8.19998 17.8001V8.2001H17.8V17.8001H8.19998ZM14.9576 11.6209C14.9258 11.5573 14.8776 11.5033 14.8179 11.4644C14.7583 11.4256 14.6894 11.4034 14.6184 11.4001C14.5471 11.394 14.4756 11.4084 14.4122 11.4415C14.3489 11.4747 14.2963 11.5253 14.2608 11.5873L12.5272 14.3601L11.2832 13.1169C11.2407 13.0759 11.19 13.0442 11.1344 13.0241C11.0789 13.004 11.0197 12.9958 10.9608 13.0001C10.9018 13.006 10.8448 13.0249 10.7941 13.0555C10.7433 13.086 10.6999 13.1275 10.6672 13.1769L9.06716 15.5769C9.02665 15.6372 9.00329 15.7073 8.99961 15.7798C8.99593 15.8523 9.01205 15.9245 9.04626 15.9885C9.08046 16.0526 9.13145 16.1061 9.19376 16.1434C9.25607 16.1807 9.32735 16.2003 9.39996 16.2001H16.6C16.6682 16.2001 16.7352 16.1827 16.7948 16.1494C16.8544 16.1162 16.9045 16.0683 16.9403 16.0102C16.9761 15.9522 16.9965 15.886 16.9996 15.8178C17.0026 15.7497 16.9881 15.6819 16.9576 15.6209L14.9576 11.6209ZM11.4 10.6001C11.4 11.0419 11.0418 11.4001 10.6 11.4001C10.1581 11.4001 9.79998 11.0419 9.79998 10.6001C9.79998 10.1583 10.1581 9.8001 10.6 9.8001C11.0418 9.8001 11.4 10.1583 11.4 10.6001Z" fill="white"/>
</svg>
