<svg width="26" height="26" viewBox="0 0 26 26" fill="none" xmlns="http://www.w3.org/2000/svg">
<rect width="26" height="26" rx="13" fill="#3988FF"/>
<path d="M12.2 9.7999C12.2 10.4364 11.9471 11.0469 11.497 11.497C11.047 11.947 10.4365 12.1999 9.79999 12.1999C9.16347 12.1999 8.55302 11.947 8.10293 11.497C7.65284 11.0469 7.39999 10.4364 7.39999 9.7999C7.39999 9.16338 7.65284 8.55293 8.10293 8.10285C8.55302 7.65276 9.16347 7.3999 9.79999 7.3999C10.4365 7.3999 11.047 7.65276 11.497 8.10285C11.9471 8.55293 12.2 9.16338 12.2 9.7999ZM18.6 9.7999C18.6 10.1151 18.5379 10.4272 18.4173 10.7183C18.2967 11.0095 18.1199 11.2741 17.897 11.497C17.6742 11.7198 17.4096 11.8966 17.1184 12.0172C16.8272 12.1378 16.5152 12.1999 16.2 12.1999C15.8848 12.1999 15.5727 12.1378 15.2815 12.0172C14.9904 11.8966 14.7258 11.7198 14.5029 11.497C14.2801 11.2741 14.1033 11.0095 13.9827 10.7183C13.8621 10.4272 13.8 10.1151 13.8 9.7999C13.8 9.16338 14.0528 8.55293 14.5029 8.10285C14.953 7.65276 15.5635 7.3999 16.2 7.3999C16.8365 7.3999 17.447 7.65276 17.897 8.10285C18.3471 8.55293 18.6 9.16338 18.6 9.7999ZM15.344 18.5999C15.3808 18.3383 15.4 18.0719 15.4 17.7999C15.4018 16.543 14.979 15.3223 14.2 14.3359C14.8081 13.9848 15.4978 13.8 16.2 13.8C16.9021 13.8 17.5919 13.9848 18.1999 14.3359C18.808 14.6869 19.313 15.1919 19.6641 15.7999C20.0151 16.408 20.2 17.0978 20.2 17.7999V18.5999H15.344ZM9.79999 13.7999C10.8609 13.7999 11.8783 14.2213 12.6284 14.9715C13.3786 15.7216 13.8 16.739 13.8 17.7999V18.5999H5.79999V17.7999C5.79999 16.739 6.22142 15.7216 6.97156 14.9715C7.72171 14.2213 8.73912 13.7999 9.79999 13.7999Z" fill="white"/>
</svg>
