<svg width="26" height="26" viewBox="0 0 26 26" fill="none" xmlns="http://www.w3.org/2000/svg">
<rect width="26" height="26" rx="13" fill="#979797"/>
<path d="M10.7554 7.02264C11.4131 6.57676 12.194 6.3335 13 6.3335C14.0609 6.3335 15.0783 6.75492 15.8284 7.50507C16.5786 8.25521 17 9.27263 17 10.3335C17 11.734 17.1801 12.8343 17.4323 13.6884M9.17245 9.17165C9.05911 9.545 9 9.9362 9 10.3335C9 12.3936 8.48031 13.8041 7.89978 14.7371C7.41008 15.5241 7.16524 15.9176 7.17422 16.0273C7.18416 16.1489 7.20991 16.1952 7.30785 16.2679C7.39631 16.3335 7.79506 16.3335 8.59257 16.3335H16.3333M11.2361 19.0002C11.7062 19.4151 12.3237 19.6668 13 19.6668C13.6763 19.6668 14.2938 19.4151 14.7639 19.0002M19 19.0002L7 7.00016" stroke="white" stroke-width="2" stroke-linecap="round" stroke-linejoin="round"/>
</svg>
