<svg width="26" height="26" viewBox="0 0 26 26" fill="none" xmlns="http://www.w3.org/2000/svg">
<rect width="26" height="26" rx="13" fill="#3988FF"/>
<path d="M17 10.333C17 9.27214 16.5785 8.25473 15.8284 7.50458C15.0783 6.75444 14.0608 6.33301 13 6.33301C11.9391 6.33301 10.9217 6.75444 10.1715 7.50458C9.4214 8.25473 8.99997 9.27214 8.99997 10.333C8.99997 12.3931 8.48029 13.8036 7.89975 14.7366C7.41006 15.5236 7.16521 15.9171 7.17419 16.0268C7.18413 16.1484 7.20988 16.1947 7.30782 16.2674C7.39628 16.333 7.79503 16.333 8.59254 16.333H17.4074C18.2049 16.333 18.6037 16.333 18.6921 16.2674C18.7901 16.1947 18.8158 16.1484 18.8258 16.0268C18.8347 15.9171 18.5899 15.5236 18.1002 14.7366C17.5197 13.8036 17 12.3931 17 10.333Z" fill="white"/>
<path d="M11.2361 18.9997C11.7062 19.4146 12.3237 19.6663 13 19.6663C13.6763 19.6663 14.2938 19.4146 14.7639 18.9997M17 10.333C17 9.27214 16.5785 8.25473 15.8284 7.50458C15.0783 6.75444 14.0608 6.33301 13 6.33301C11.9391 6.33301 10.9217 6.75444 10.1715 7.50458C9.4214 8.25473 8.99997 9.27214 8.99997 10.333C8.99997 12.3931 8.48029 13.8036 7.89975 14.7366C7.41006 15.5236 7.16521 15.9171 7.17419 16.0268C7.18413 16.1484 7.20988 16.1947 7.30782 16.2674C7.39628 16.333 7.79503 16.333 8.59254 16.333H17.4074C18.2049 16.333 18.6037 16.333 18.6921 16.2674C18.7901 16.1947 18.8158 16.1484 18.8258 16.0268C18.8347 15.9171 18.5899 15.5236 18.1002 14.7366C17.5197 13.8036 17 12.3931 17 10.333Z" stroke="white" stroke-linecap="round" stroke-linejoin="round"/>
</svg>
