<svg width="26" height="26" viewBox="0 0 26 26" fill="none" xmlns="http://www.w3.org/2000/svg">
<rect width="26" height="26" rx="13" fill="#FFE141"/>
<g clip-path="url(#clip0_866_51727)">
<path d="M13.7351 7.43099C13.943 6.94585 14.047 6.70329 14.215 6.5931C14.3619 6.49675 14.5409 6.46227 14.7131 6.49718C14.91 6.53709 15.0966 6.7237 15.4698 7.09692L18.8985 10.5257C19.2718 10.8989 19.4584 11.0855 19.4983 11.2824C19.5332 11.4546 19.4987 11.6336 19.4024 11.7805C19.2922 11.9485 19.0496 12.0524 18.5645 12.2603L16.9016 12.973C16.831 13.0033 16.7957 13.0184 16.7627 13.0373C16.7333 13.0541 16.7052 13.0731 16.6787 13.0941C16.6489 13.1178 16.6218 13.1449 16.5675 13.1992L15.5269 14.2398C15.442 14.3247 15.3996 14.3671 15.3659 14.4155C15.3359 14.4584 15.3111 14.5047 15.292 14.5534C15.2705 14.6083 15.2587 14.6671 15.2352 14.7848L14.7466 17.2278C14.6196 17.8627 14.5561 18.1801 14.3888 18.3286C14.243 18.458 14.0478 18.5171 13.8548 18.4903C13.6331 18.4596 13.4042 18.2307 12.9464 17.7729L8.22258 13.049C7.76477 12.5912 7.53586 12.3623 7.50514 12.1407C7.47837 11.9476 7.53745 11.7525 7.66683 11.6067C7.81533 11.4393 8.13277 11.3758 8.76764 11.2488L11.2106 10.7603C11.3283 10.7367 11.3872 10.7249 11.4421 10.7034C11.4908 10.6843 11.5371 10.6595 11.58 10.6296C11.6283 10.5959 11.6708 10.5534 11.7557 10.4685L12.7963 9.42796C12.8505 9.37369 12.8777 9.34655 12.9014 9.31672C12.9224 9.29023 12.9414 9.26217 12.9582 9.23278C12.9771 9.19971 12.9922 9.16444 13.0224 9.09389L13.7351 7.43099Z" fill="white"/>
<path d="M10.5845 15.411L6.81323 19.1822M12.7963 9.42796L11.7557 10.4685C11.6708 10.5534 11.6283 10.5959 11.58 10.6296C11.5371 10.6595 11.4908 10.6843 11.4421 10.7034C11.3872 10.7249 11.3283 10.7367 11.2106 10.7603L8.76764 11.2488C8.13277 11.3758 7.81533 11.4393 7.66683 11.6067C7.53745 11.7525 7.47837 11.9476 7.50514 12.1407C7.53586 12.3623 7.76477 12.5912 8.22258 13.049L12.9464 17.7729C13.4042 18.2307 13.6331 18.4596 13.8548 18.4903C14.0478 18.5171 14.243 18.458 14.3888 18.3286C14.5561 18.1801 14.6196 17.8627 14.7466 17.2278L15.2352 14.7848C15.2587 14.6671 15.2705 14.6083 15.292 14.5534C15.3111 14.5047 15.3359 14.4584 15.3659 14.4155C15.3996 14.3671 15.442 14.3247 15.5269 14.2398L16.5675 13.1992C16.6218 13.1449 16.6489 13.1178 16.6787 13.0941C16.7052 13.0731 16.7333 13.0541 16.7627 13.0373C16.7957 13.0184 16.831 13.0033 16.9016 12.973L18.5645 12.2603C19.0496 12.0524 19.2922 11.9485 19.4024 11.7805C19.4987 11.6336 19.5332 11.4546 19.4983 11.2824C19.4584 11.0855 19.2718 10.8989 18.8985 10.5257L15.4698 7.09692C15.0966 6.7237 14.91 6.53709 14.7131 6.49718C14.5409 6.46227 14.3619 6.49675 14.215 6.5931C14.047 6.70329 13.943 6.94585 13.7351 7.43099L13.0224 9.09389C12.9922 9.16444 12.9771 9.19971 12.9582 9.23278C12.9414 9.26217 12.9224 9.29023 12.9014 9.31672C12.8777 9.34655 12.8505 9.37369 12.7963 9.42796Z" stroke="white" stroke-width="2" stroke-linecap="round" stroke-linejoin="round"/>
</g>
<defs>
<clipPath id="clip0_866_51727">
<rect width="16" height="16" fill="white" transform="translate(5 5)"/>
</clipPath>
</defs>
</svg>
