<svg width="26" height="26" viewBox="0 0 26 26" fill="none" xmlns="http://www.w3.org/2000/svg">
<rect width="26" height="26" rx="13" fill="#A36BFF"/>
<path fill-rule="evenodd" clip-rule="evenodd" d="M12.5064 7.4612C12.6526 7.5218 12.7775 7.62437 12.8654 7.75594C12.9532 7.88752 13.0001 8.04219 13 8.2004V17.8004C13 17.9586 12.9531 18.1132 12.8652 18.2448C12.7773 18.3763 12.6523 18.4788 12.5062 18.5393C12.36 18.5999 12.1992 18.6157 12.044 18.5849C11.8889 18.554 11.7463 18.4779 11.6344 18.366L8.66885 15.4004H6.60005C6.38788 15.4004 6.18439 15.3161 6.03436 15.1661C5.88433 15.0161 5.80005 14.8126 5.80005 14.6004V11.4004C5.80005 11.1882 5.88433 10.9847 6.03436 10.8347C6.18439 10.6847 6.38788 10.6004 6.60005 10.6004H8.66885L11.6344 7.6348C11.7463 7.52286 11.8889 7.44661 12.0441 7.41571C12.1993 7.38481 12.3602 7.40064 12.5064 7.4612ZM16.7256 7.3436C16.8757 7.19363 17.0791 7.10938 17.2912 7.10938C17.5034 7.10938 17.7068 7.19363 17.8568 7.3436C18.6007 8.08573 19.1906 8.96749 19.5928 9.93825C19.9949 10.909 20.2013 11.9497 20.2 13.0004C20.2013 14.0512 19.9949 15.0918 19.5928 16.0626C19.1906 17.0333 18.6007 17.9151 17.8568 18.6572C17.706 18.8029 17.5039 18.8836 17.2941 18.8817C17.0844 18.8799 16.8837 18.7958 16.7354 18.6475C16.5871 18.4991 16.5029 18.2985 16.5011 18.0887C16.4993 17.879 16.5799 17.6769 16.7256 17.526C17.321 16.9324 17.793 16.227 18.1147 15.4504C18.4364 14.6737 18.6013 13.8411 18.6 13.0004C18.6 11.2324 17.8848 9.634 16.7256 8.4748C16.5757 8.32478 16.4914 8.12134 16.4914 7.9092C16.4914 7.69707 16.5757 7.49363 16.7256 7.3436ZM14.4624 9.606C14.5367 9.53162 14.625 9.47262 14.7221 9.43236C14.8192 9.3921 14.9233 9.37137 15.0284 9.37137C15.1336 9.37137 15.2377 9.3921 15.3348 9.43236C15.4319 9.47262 15.5202 9.53162 15.5944 9.606C16.0408 10.0513 16.3947 10.5805 16.6359 11.163C16.8771 11.7455 17.0009 12.3699 17 13.0004C17.0008 13.6309 16.877 14.2553 16.6358 14.8378C16.3946 15.4203 16.0407 15.9494 15.5944 16.3948C15.4443 16.5449 15.2407 16.6292 15.0284 16.6292C14.8162 16.6292 14.6126 16.5449 14.4624 16.3948C14.3123 16.2447 14.228 16.0411 14.228 15.8288C14.228 15.6165 14.3123 15.4129 14.4624 15.2628C14.7602 14.9661 14.9963 14.6135 15.1572 14.2253C15.3181 13.837 15.4007 13.4207 15.4 13.0004C15.4007 12.5801 15.3182 12.1638 15.1573 11.7755C14.9964 11.3872 14.7602 11.0346 14.4624 10.738C14.3881 10.6637 14.3291 10.5755 14.2888 10.4784C14.2485 10.3812 14.2278 10.2771 14.2278 10.172C14.2278 10.0669 14.2485 9.96277 14.2888 9.86565C14.3291 9.76853 14.3881 9.6803 14.4624 9.606Z" fill="white"/>
</svg>
