<svg width="26" height="26" viewBox="0 0 26 26" fill="none" xmlns="http://www.w3.org/2000/svg">
<rect width="26" height="26" rx="13" fill="#3988FF"/>
<g clip-path="url(#clip0_877_21004)">
<path d="M11.06 10.9997C11.2168 10.5541 11.5261 10.1784 11.9333 9.9391C12.3405 9.69978 12.8193 9.6123 13.2848 9.69215C13.7503 9.772 14.1726 10.014 14.4768 10.3754C14.7809 10.7367 14.9474 11.194 14.9467 11.6663C14.9467 12.9997 12.9467 13.6663 12.9467 13.6663M13 16.333H13.0067M19.6667 12.9997C19.6667 16.6816 16.6819 19.6663 13 19.6663C9.31814 19.6663 6.33337 16.6816 6.33337 12.9997C6.33337 9.31778 9.31814 6.33301 13 6.33301C16.6819 6.33301 19.6667 9.31778 19.6667 12.9997Z" stroke="white" stroke-width="2" stroke-linecap="round" stroke-linejoin="round"/>
</g>
<defs>
<clipPath id="clip0_877_21004">
<rect width="16" height="16" fill="white" transform="translate(5 5)"/>
</clipPath>
</defs>
</svg>
