<svg width="26" height="26" viewBox="0 0 26 26" fill="none" xmlns="http://www.w3.org/2000/svg">
<rect width="26" height="26" rx="13" fill="#0FE0AF"/>
<path d="M16.3333 14.3333C16.3333 14.5174 16.1841 14.6667 16 14.6667C15.8159 14.6667 15.6667 14.5174 15.6667 14.3333C15.6667 14.1492 15.8159 14 16 14C16.1841 14 16.3333 14.1492 16.3333 14.3333Z" fill="white"/>
<path d="M19 17.6667V11C19 10.2636 18.403 9.66667 17.6667 9.66667L8.33333 9.66667C7.59695 9.66667 7 9.06971 7 8.33333V17.6667C7 18.403 7.59695 19 8.33333 19H17.6667C18.403 19 19 18.403 19 17.6667Z" fill="white"/>
<path d="M16 14.3333H16.0067M7 8.33333V17.6667C7 18.403 7.59695 19 8.33333 19H17.6667C18.403 19 19 18.403 19 17.6667V11C19 10.2636 18.403 9.66667 17.6667 9.66667L8.33333 9.66667C7.59695 9.66667 7 9.06971 7 8.33333ZM7 8.33333C7 7.59695 7.59695 7 8.33333 7H16.3333M16.3333 14.3333C16.3333 14.5174 16.1841 14.6667 16 14.6667C15.8159 14.6667 15.6667 14.5174 15.6667 14.3333C15.6667 14.1492 15.8159 14 16 14C16.1841 14 16.3333 14.1492 16.3333 14.3333Z" stroke="white" stroke-linecap="round" stroke-linejoin="round"/>
</svg>
